<svg width="1024" height="1024" viewBox="0 0 1024 1024" fill="none" xmlns="http://www.w3.org/2000/svg">
<rect width="1024" height="1024" rx="240" fill="url(#paint0_radial)"/>
<g filter="url(#filter0_d)">
<ellipse cx="511.385" cy="512" rx="430.385" ry="431" fill="#3F7EC9"/>
</g>
<g filter="url(#filter1_d)">
<path d="M937.545 451.752C925.246 364.506 886.541 283.132 826.644 218.591C766.747 154.05 688.536 109.443 602.548 90.7797C516.559 72.1166 426.925 80.2938 345.719 114.21C264.514 148.126 195.639 206.151 148.374 280.468L166.462 281.723C210.274 212.836 282.553 174.714 357.824 143.276C433.096 111.839 516.181 104.259 595.886 121.558C675.592 138.858 748.088 180.205 803.608 240.03C859.128 299.855 870.45 308.814 895.043 387.626L937.545 451.752Z" fill="#5090DD"/>
</g>
<g filter="url(#filter2_i)">
<path d="M941.771 512C573.484 420.258 481.258 940.537 347.224 512C296.888 322.057 235.324 286.737 161.544 312.509C138.795 320.455 85.6727 397.477 89.6077 419.643" stroke="#491A85" stroke-width="100" stroke-linecap="round" stroke-linejoin="round"/>
</g>
<g filter="url(#filter3_d)">
<path d="M941.771 512C941.771 750.034 749.081 942.999 511.385 942.999C273.69 942.999 81 750.034 81 512C81 273.965 262.377 191.829 347.224 512C481.258 940.537 573.484 420.258 941.771 512Z" fill="#45BB82"/>
</g>
<g filter="url(#filter4_d)">
<path d="M943 512C787.447 679.474 694.975 736.736 457.28 736.736C219.585 736.736 267.91 707.798 206.427 479.983C171.777 351.596 263.606 191.829 348.454 512C482.488 940.537 574.713 420.258 943 512Z" fill="#50C88E"/>
</g>
<g filter="url(#filter5_d)">
<ellipse cx="543.357" cy="324.823" rx="140.183" ry="140.383" fill="#491A85"/>
</g>
<g filter="url(#filter6_d)">
<ellipse cx="543.357" cy="324.823" rx="98.3738" ry="98.5143" fill="#5F29A3"/>
</g>
<defs>
<filter id="filter0_d" x="71" y="71.0002" width="880.771" height="882" filterUnits="userSpaceOnUse" color-interpolation-filters="sRGB">
<feFlood flood-opacity="0" result="BackgroundImageFix"/>
<feColorMatrix in="SourceAlpha" type="matrix" values="0 0 0 0 0 0 0 0 0 0 0 0 0 0 0 0 0 0 127 0"/>
<feOffset/>
<feGaussianBlur stdDeviation="5"/>
<feColorMatrix type="matrix" values="0 0 0 0 0.247059 0 0 0 0 0.494118 0 0 0 0 0.788235 0 0 0 1 0"/>
<feBlend mode="normal" in2="BackgroundImageFix" result="effect1_dropShadow"/>
<feBlend mode="normal" in="SourceGraphic" in2="effect1_dropShadow" result="shape"/>
</filter>
<filter id="filter1_d" x="138.374" y="71" width="809.171" height="390.752" filterUnits="userSpaceOnUse" color-interpolation-filters="sRGB">
<feFlood flood-opacity="0" result="BackgroundImageFix"/>
<feColorMatrix in="SourceAlpha" type="matrix" values="0 0 0 0 0 0 0 0 0 0 0 0 0 0 0 0 0 0 127 0"/>
<feOffset/>
<feGaussianBlur stdDeviation="5"/>
<feColorMatrix type="matrix" values="0 0 0 0 0.313726 0 0 0 0 0.564706 0 0 0 0 0.866667 0 0 0 1 0"/>
<feBlend mode="normal" in2="BackgroundImageFix" result="effect1_dropShadow"/>
<feBlend mode="normal" in="SourceGraphic" in2="effect1_dropShadow" result="shape"/>
</filter>
<filter id="filter2_i" x="39.4036" y="255.068" width="957.379" height="478.589" filterUnits="userSpaceOnUse" color-interpolation-filters="sRGB">
<feFlood flood-opacity="0" result="BackgroundImageFix"/>
<feBlend mode="normal" in="SourceGraphic" in2="BackgroundImageFix" result="shape"/>
<feColorMatrix in="SourceAlpha" type="matrix" values="0 0 0 0 0 0 0 0 0 0 0 0 0 0 0 0 0 0 127 0" result="hardAlpha"/>
<feOffset dx="5"/>
<feGaussianBlur stdDeviation="10"/>
<feComposite in2="hardAlpha" operator="arithmetic" k2="-1" k3="1"/>
<feColorMatrix type="matrix" values="0 0 0 0 0.461059 0 0 0 0 0.3 0 0 0 0 0.666667 0 0 0 1 0"/>
<feBlend mode="screen" in2="shape" result="effect1_innerShadow"/>
</filter>
<filter id="filter3_d" x="71" y="291.552" width="880.771" height="661.448" filterUnits="userSpaceOnUse" color-interpolation-filters="sRGB">
<feFlood flood-opacity="0" result="BackgroundImageFix"/>
<feColorMatrix in="SourceAlpha" type="matrix" values="0 0 0 0 0 0 0 0 0 0 0 0 0 0 0 0 0 0 127 0"/>
<feOffset/>
<feGaussianBlur stdDeviation="5"/>
<feColorMatrix type="matrix" values="0 0 0 0 0.270588 0 0 0 0 0.733333 0 0 0 0 0.509804 0 0 0 1 0"/>
<feBlend mode="normal" in2="BackgroundImageFix" result="effect1_dropShadow"/>
<feBlend mode="normal" in="SourceGraphic" in2="effect1_dropShadow" result="shape"/>
</filter>
<filter id="filter4_d" x="194.921" y="324.536" width="752.079" height="420.2" filterUnits="userSpaceOnUse" color-interpolation-filters="sRGB">
<feFlood flood-opacity="0" result="BackgroundImageFix"/>
<feColorMatrix in="SourceAlpha" type="matrix" values="0 0 0 0 0 0 0 0 0 0 0 0 0 0 0 0 0 0 127 0"/>
<feOffset dy="4"/>
<feGaussianBlur stdDeviation="2"/>
<feColorMatrix type="matrix" values="0 0 0 0 0.313726 0 0 0 0 0.784314 0 0 0 0 0.556863 0 0 0 1 0"/>
<feBlend mode="normal" in2="BackgroundImageFix" result="effect1_dropShadow"/>
<feBlend mode="normal" in="SourceGraphic" in2="effect1_dropShadow" result="shape"/>
</filter>
<filter id="filter5_d" x="393.174" y="174.44" width="300.365" height="300.766" filterUnits="userSpaceOnUse" color-interpolation-filters="sRGB">
<feFlood flood-opacity="0" result="BackgroundImageFix"/>
<feColorMatrix in="SourceAlpha" type="matrix" values="0 0 0 0 0 0 0 0 0 0 0 0 0 0 0 0 0 0 127 0"/>
<feOffset/>
<feGaussianBlur stdDeviation="5"/>
<feColorMatrix type="matrix" values="0 0 0 0 0.286275 0 0 0 0 0.101961 0 0 0 0 0.521569 0 0 0 1 0"/>
<feBlend mode="normal" in2="BackgroundImageFix" result="effect1_dropShadow"/>
<feBlend mode="normal" in="SourceGraphic" in2="effect1_dropShadow" result="shape"/>
</filter>
<filter id="filter6_d" x="434.983" y="216.309" width="216.748" height="217.029" filterUnits="userSpaceOnUse" color-interpolation-filters="sRGB">
<feFlood flood-opacity="0" result="BackgroundImageFix"/>
<feColorMatrix in="SourceAlpha" type="matrix" values="0 0 0 0 0 0 0 0 0 0 0 0 0 0 0 0 0 0 127 0"/>
<feOffset/>
<feGaussianBlur stdDeviation="5"/>
<feColorMatrix type="matrix" values="0 0 0 0 0.372549 0 0 0 0 0.160784 0 0 0 0 0.639216 0 0 0 1 0"/>
<feBlend mode="normal" in2="BackgroundImageFix" result="effect1_dropShadow"/>
<feBlend mode="normal" in="SourceGraphic" in2="effect1_dropShadow" result="shape"/>
</filter>
<radialGradient id="paint0_radial" cx="0" cy="0" r="1" gradientUnits="userSpaceOnUse" gradientTransform="translate(527 569) rotate(89.5589) scale(649.519)">
<stop stop-color="white"/>
<stop offset="0.9999" stop-color="#D2D2D2"/>
</radialGradient>
</defs>
</svg>
